<svg xmlns="http://www.w3.org/2000/svg" xlink="http://www.w3.org/1999/xlink" width="0" height="0" style="display:none;"><symbol viewBox="0 0 24 24" id="book-3-fill"><path fill="none" d="M0 0h24v24H0z"/><path d="M21 4H7a2 2 0 1 0 0 4h14v13a1 1 0 0 1-1 1H7a4 4 0 0 1-4-4V6a4 4 0 0 1 4-4h13a1 1 0 0 1 1 1v1zm-1 3H7a1 1 0 1 1 0-2h13v2z"/></symbol><symbol viewBox="0 0 24 24" id="artboard-fill"><path fill="none" d="M0 0h24v24H0z"/><path d="M8.586 17H3v-2h18v2h-5.586l3.243 3.243-1.414 1.414L13 17.414V20h-2v-2.586l-4.243 4.243-1.414-1.414L8.586 17zM5 3h14a1 1 0 0 1 1 1v10H4V4a1 1 0 0 1 1-1z"/></symbol><symbol viewBox="0 0 24 24" id="article-fill"><path fill="none" d="M0 0h24v24H0z"/><path d="M20 22H4a1 1 0 0 1-1-1V3a1 1 0 0 1 1-1h16a1 1 0 0 1 1 1v18a1 1 0 0 1-1 1zM7 6v4h4V6H7zm0 6v2h10v-2H7zm0 4v2h10v-2H7zm6-9v2h4V7h-4z"/></symbol><symbol viewBox="0 0 24 24" id="earth-line"><path fill="none" d="M0 0h24v24H0z"/><path d="M6.235 6.453a8 8 0 0 0 8.817 12.944c.115-.75-.137-1.47-.24-1.722-.23-.56-.988-1.517-2.253-2.844-.338-.355-.316-.628-.195-1.437l.013-.091c.082-.554.22-.882 2.085-1.178.948-.15 1.197.228 1.542.753l.116.172c.328.48.571.59.938.756.165.075.37.17.645.325.652.373.652.794.652 1.716v.105c0 .391-.038.735-.098 1.034a8.002 8.002 0 0 0-3.105-12.341c-.553.373-1.312.902-1.577 1.265-.135.185-.327 1.132-.95 1.21-.162.02-.381.006-.613-.009-.622-.04-1.472-.095-1.744.644-.173.468-.203 1.74.356 2.4.09.105.107.3.046.519-.08.287-.241.462-.292.498-.096-.056-.288-.279-.419-.43-.313-.365-.705-.82-1.211-.96-.184-.051-.386-.093-.583-.135-.549-.115-1.17-.246-1.315-.554-.106-.226-.105-.537-.105-.865 0-.417 0-.888-.204-1.345a1.276 1.276 0 0 0-.306-.43zM12 22C6.477 22 2 17.523 2 12S6.477 2 12 2s10 4.477 10 10-4.477 10-10 10z"/></symbol><symbol viewBox="0 0 24 24" id="mail-line"><path fill="none" d="M0 0h24v24H0z"/><path d="M3 3h18a1 1 0 0 1 1 1v16a1 1 0 0 1-1 1H3a1 1 0 0 1-1-1V4a1 1 0 0 1 1-1zm17 4.238l-7.928 7.1L4 7.216V19h16V7.238zM4.511 5l7.55 6.662L19.502 5H4.511z"/></symbol><symbol viewBox="0 0 24 24" id="mail-unread-fill"><path fill="none" d="M0 0h24v24H0z"/><path d="M18.803 8.493A5.023 5.023 0 0 0 22 8.9V20a1 1 0 0 1-1 1H3a1 1 0 0 1-1-1V4a1 1 0 0 1 1-1h13.1c-.066.323-.1.658-.1 1a4.98 4.98 0 0 0 1.193 3.241l-5.132 4.442-6.414-5.445-1.294 1.524 7.72 6.555 6.73-5.824zM21 7a3 3 0 1 1 0-6 3 3 0 0 1 0 6z"/></symbol><symbol viewBox="0 0 24 24" id="mail-fill"><path fill="none" d="M0 0h24v24H0z"/><path d="M3 3h18a1 1 0 0 1 1 1v16a1 1 0 0 1-1 1H3a1 1 0 0 1-1-1V4a1 1 0 0 1 1-1zm9.06 8.683L5.648 6.238 4.353 7.762l7.72 6.555 7.581-6.56-1.308-1.513-6.285 5.439z"/></symbol><symbol viewBox="0 0 24 24" id="pencil-ruler-line"><path fill="none" d="M0 0h24v24H0z"/><path d="M5 8v12h4V8H5zM3 7l4-5 4 5v15H3V7zm16 9v-2h-3v-2h3v-2h-2V8h2V6h-4v14h4v-2h-2v-2h2zM14 4h6a1 1 0 0 1 1 1v16a1 1 0 0 1-1 1h-6a1 1 0 0 1-1-1V5a1 1 0 0 1 1-1z"/></symbol><symbol viewBox="0 0 24 24" id="pencil-ruler-2-line"><path fill="none" d="M0 0h24v24H0z"/><path d="M7.05 14.121L4.93 16.243l2.828 2.828L19.071 7.757 16.243 4.93 14.12 7.05l1.415 1.414L14.12 9.88l-1.414-1.415-1.414 1.415 1.414 1.414-1.414 1.414-1.414-1.414-1.415 1.414 1.415 1.414-1.415 1.415L7.05 14.12zm9.9-11.313l4.242 4.242a1 1 0 0 1 0 1.414L8.464 21.192a1 1 0 0 1-1.414 0L2.808 16.95a1 1 0 0 1 0-1.414L15.536 2.808a1 1 0 0 1 1.414 0zM14.12 18.363l1.415-1.414 2.242 2.243h1.414v-1.414l-2.242-2.243 1.414-1.414L21 16.757V21h-4.242l-2.637-2.637zM5.636 9.878L2.807 7.05a1 1 0 0 1 0-1.415l2.829-2.828a1 1 0 0 1 1.414 0L9.88 5.635 8.464 7.05 6.343 4.928 4.929 6.343l2.121 2.12-1.414 1.415z"/></symbol><symbol viewBox="0 0 24 24" id="pencil-ruler-fill"><path fill="none" d="M0 0h24v24H0z"/><path d="M5 18v2h4v-2H5zM3 7l4-5 4 5v15H3V7zm18 1h-2v2h2v2h-3v2h3v2h-2v2h2v3a1 1 0 0 1-1 1h-6a1 1 0 0 1-1-1V5a1 1 0 0 1 1-1h6a1 1 0 0 1 1 1v3z"/></symbol><symbol viewBox="0 0 24 24" id="pencil-ruler-2-fill"><path fill="none" d="M0 0h24v24H0z"/><path d="M5.636 12.707l1.828 1.829L8.88 13.12 7.05 11.293l1.414-1.414 1.829 1.828 1.414-1.414L9.88 8.464l1.414-1.414L13.12 8.88l1.415-1.415-1.829-1.828 2.829-2.828a1 1 0 0 1 1.414 0l4.242 4.242a1 1 0 0 1 0 1.414L8.464 21.192a1 1 0 0 1-1.414 0L2.808 16.95a1 1 0 0 1 0-1.414l2.828-2.829zm8.485 5.656l4.243-4.242L21 16.757V21h-4.242l-2.637-2.637zM5.636 9.878L2.807 7.05a1 1 0 0 1 0-1.415l2.829-2.828a1 1 0 0 1 1.414 0L9.88 5.635 5.636 9.878z"/></symbol><symbol viewBox="0 0 24 24" id="pen-nib-fill"><path fill="none" d="M0 0h24v24H0z"/><path d="M4.929 21.485l5.846-5.846a2 2 0 1 0-1.414-1.414l-5.846 5.846-1.06-1.06c2.827-3.3 3.888-6.954 5.302-13.082l6.364-.707 5.657 5.657-.707 6.364c-6.128 1.414-9.782 2.475-13.081 5.303l-1.061-1.06zM16.596 2.04l6.347 6.346a.5.5 0 0 1-.277.848l-1.474.23-5.656-5.656.212-1.485a.5.5 0 0 1 .848-.283z"/></symbol><symbol viewBox="0 0 24 24" id="pen-nib-line"><path fill="none" d="M0 0h24v24H0z"/><path d="M16.596 1.04l6.347 6.346a.5.5 0 0 1-.277.848l-1.474.23-5.656-5.656.212-1.485a.5.5 0 0 1 .848-.283zM4.595 20.15c3.722-3.331 7.995-4.328 12.643-5.52l.446-4.018-4.297-4.297-4.018.446c-1.192 4.648-2.189 8.92-5.52 12.643L2.454 18.01c2.828-3.3 3.89-6.953 5.303-13.081l6.364-.707 5.657 5.657-.707 6.364c-6.128 1.414-9.782 2.475-13.081 5.303L4.595 20.15zm5.284-6.03a2 2 0 1 1 2.828-2.828A2 2 0 0 1 9.88 14.12z"/></symbol><symbol viewBox="0 0 24 24" id="quill-pen-fill"><path fill="none" d="M0 0h24v24H0z"/><path d="M21 2C6 2 4 16 3 22h1.998c.666-3.333 2.333-5.166 5.002-5.5 4-.5 7-4 8-7l-1.5-1 1-1c1-1 2.004-2.5 3.5-5.5z"/></symbol><symbol viewBox="0 0 24 24" id="mark-pen-fill"><path fill="none" d="M0 0h24v24H0z"/><path d="M15.95 2.393l5.657 5.657a1 1 0 0 1 0 1.414l-7.779 7.779-2.12.707-1.415 1.414a1 1 0 0 1-1.414 0l-4.243-4.243a1 1 0 0 1 0-1.414l1.414-1.414.707-2.121 7.779-7.779a1 1 0 0 1 1.414 0zm.707 3.536l-6.364 6.364 1.414 1.414 6.364-6.364-1.414-1.414zM4.282 16.889l2.829 2.829-1.414 1.414-4.243-1.414 2.828-2.829z"/></symbol><symbol viewBox="0 0 24 24" id="time-line"><path fill="none" d="M0 0h24v24H0z"/><path d="M12 22C6.477 22 2 17.523 2 12S6.477 2 12 2s10 4.477 10 10-4.477 10-10 10zm0-2a8 8 0 1 0 0-16 8 8 0 0 0 0 16zm1-8h4v2h-6V7h2v5z"/></symbol><symbol viewBox="0 0 24 24" id="time-fill"><path fill="none" d="M0 0h24v24H0z"/><path d="M12 22C6.477 22 2 17.523 2 12S6.477 2 12 2s10 4.477 10 10-4.477 10-10 10zm1-10V7h-2v7h6v-2h-4z"/></symbol><symbol viewBox="0 0 24 24" id="tools-fill"><path fill="none" d="M0 0h24v24H0z"/><path d="M5.33 3.271a3.5 3.5 0 0 1 4.472 4.474L20.647 18.59l-2.122 2.121L7.68 9.867a3.5 3.5 0 0 1-4.472-4.474L5.444 7.63a1.5 1.5 0 1 0 2.121-2.121L5.329 3.27zm10.367 1.884l3.182-1.768 1.414 1.414-1.768 3.182-1.768.354-2.12 2.121-1.415-1.414 2.121-2.121.354-1.768zm-7.071 7.778l2.121 2.122-4.95 4.95A1.5 1.5 0 0 1 3.58 17.99l.097-.107 4.95-4.95z"/></symbol><symbol viewBox="0 0 24 24" id="file-user-fill"><path fill="none" d="M0 0h24v24H0z"/><path d="M16 2l5 5v14.008a.993.993 0 0 1-.993.992H3.993A1 1 0 0 1 3 21.008V2.992C3 2.444 3.445 2 3.993 2H16zm-4 9.5a2.5 2.5 0 1 0 0-5 2.5 2.5 0 0 0 0 5zM7.527 17h8.946a4.5 4.5 0 0 0-8.946 0z"/></symbol><symbol viewBox="0 0 24 24" id="map-pin-user-fill"><path fill="none" d="M0 0h24v24H0z"/><path d="M17.084 15.812a7 7 0 1 0-10.168 0A5.996 5.996 0 0 1 12 13a5.996 5.996 0 0 1 5.084 2.812zM12 23.728l-6.364-6.364a9 9 0 1 1 12.728 0L12 23.728zM12 12a3 3 0 1 1 0-6 3 3 0 0 1 0 6z"/></symbol><symbol viewBox="0 0 24 24" id="user-3-fill"><path fill="none" d="M0 0h24v24H0z"/><path d="M20 22H4v-2a5 5 0 0 1 5-5h6a5 5 0 0 1 5 5v2zm-8-9a6 6 0 1 1 0-12 6 6 0 0 1 0 12z"/></symbol><symbol viewBox="0 0 24 24" id="user-5-fill"><path fill="none" d="M0 0h24v24H0z"/><path d="M7.39 16.539a8 8 0 1 1 9.221 0l2.083 4.76a.5.5 0 0 1-.459.701H5.765a.5.5 0 0 1-.459-.7l2.083-4.761zm.729-5.569a4.002 4.002 0 0 0 7.762 0l-1.94-.485a2 2 0 0 1-3.882 0l-1.94.485z"/></symbol><symbol viewBox="0 0 24 24" id="user-smile-fill"><path fill="none" d="M0 0h24v24H0z"/><path d="M12 22C6.477 22 2 17.523 2 12S6.477 2 12 2s10 4.477 10 10-4.477 10-10 10zM7 12a5 5 0 0 0 10 0h-2a3 3 0 0 1-6 0H7z"/></symbol><symbol viewBox="0 0 24 24" id="user-smile-line"><path fill="none" d="M0 0h24v24H0z"/><path d="M12 22C6.477 22 2 17.523 2 12S6.477 2 12 2s10 4.477 10 10-4.477 10-10 10zm0-2a8 8 0 1 0 0-16 8 8 0 0 0 0 16zm-5-8h2a3 3 0 0 0 6 0h2a5 5 0 0 1-10 0z"/></symbol><symbol viewBox="0 0 24 24" id="book-mark-line"><path fill="none" d="M0 0h24v24H0z"/><path d="M3 18.5V5a3 3 0 0 1 3-3h14a1 1 0 0 1 1 1v18a1 1 0 0 1-1 1H6.5A3.5 3.5 0 0 1 3 18.5zM19 20v-3H6.5a1.5 1.5 0 0 0 0 3H19zM10 4H6a1 1 0 0 0-1 1v10.337A3.486 3.486 0 0 1 6.5 15H19V4h-2v8l-3.5-2-3.5 2V4z"/></symbol><symbol viewBox="0 0 24 24" id="book-2-line"><path fill="none" d="M0 0h24v24H0z"/><path d="M21 18H6a1 1 0 0 0 0 2h15v2H6a3 3 0 0 1-3-3V4a2 2 0 0 1 2-2h16v16zM5 16.05c.162-.033.329-.05.5-.05H19V4H5v12.05zM16 9H8V7h8v2z"/></symbol><symbol viewBox="0 0 24 24" id="book-3-line"><path fill="none" d="M0 0h24v24H0z"/><path d="M21 4H7a2 2 0 1 0 0 4h14v13a1 1 0 0 1-1 1H7a4 4 0 0 1-4-4V6a4 4 0 0 1 4-4h13a1 1 0 0 1 1 1v1zM5 18a2 2 0 0 0 2 2h12V10H7a3.982 3.982 0 0 1-2-.535V18zM20 7H7a1 1 0 1 1 0-2h13v2z"/></symbol><symbol viewBox="0 0 24 24" id="book-open-line"><path fill="none" d="M0 0h24v24H0z"/><path d="M13 21v2h-2v-2H3a1 1 0 0 1-1-1V4a1 1 0 0 1 1-1h6a3.99 3.99 0 0 1 3 1.354A3.99 3.99 0 0 1 15 3h6a1 1 0 0 1 1 1v16a1 1 0 0 1-1 1h-8zm7-2V5h-5a2 2 0 0 0-2 2v12h7zm-9 0V7a2 2 0 0 0-2-2H4v14h7z"/></symbol><symbol viewBox="0 0 24 24" id="tools-line"><path fill="none" d="M0 0h24v24H0z"/><path d="M5.33 3.271a3.5 3.5 0 0 1 4.254 4.963l10.709 10.71-1.414 1.414-10.71-10.71a3.502 3.502 0 0 1-4.962-4.255L5.444 7.63a1.5 1.5 0 1 0 2.121-2.121L5.329 3.27zm10.367 1.884l3.182-1.768 1.414 1.414-1.768 3.182-1.768.354-2.12 2.121-1.415-1.414 2.121-2.121.354-1.768zm-6.718 8.132l1.414 1.414-5.303 5.303a1 1 0 0 1-1.492-1.327l.078-.087 5.303-5.303z"/></symbol><symbol viewBox="0 0 24 24" id="message-3-fill"><path fill="none" d="M0 0h24v24H0z"/><path d="M2 8.994A5.99 5.99 0 0 1 8 3h8c3.313 0 6 2.695 6 5.994V21H8c-3.313 0-6-2.695-6-5.994V8.994zM14 11v2h2v-2h-2zm-6 0v2h2v-2H8z"/></symbol><symbol viewBox="0 0 24 24" id="chat-1-fill"><path fill="none" d="M0 0h24v24H0z"/><path d="M10 3h4a8 8 0 1 1 0 16v3.5c-5-2-12-5-12-11.5a8 8 0 0 1 8-8z"/></symbol><symbol viewBox="0 0 24 24" id="message-2-fill"><path fill="none" d="M0 0h24v24H0z"/><path d="M6.455 19L2 22.5V4a1 1 0 0 1 1-1h18a1 1 0 0 1 1 1v14a1 1 0 0 1-1 1H6.455zM7 10v2h2v-2H7zm4 0v2h2v-2h-2zm4 0v2h2v-2h-2z"/></symbol><symbol viewBox="0 0 24 24" id="chat-smile-fill"><path fill="none" d="M0 0h24v24H0z"/><path d="M6.455 19L2 22.5V4a1 1 0 0 1 1-1h18a1 1 0 0 1 1 1v14a1 1 0 0 1-1 1H6.455zM7 10a5 5 0 0 0 10 0h-2a3 3 0 0 1-6 0H7z"/></symbol><symbol viewBox="0 0 24 24" id="video-chat-fill"><path fill="none" d="M0 0h24v24H0z"/><path d="M6.455 19L2 22.5V4a1 1 0 0 1 1-1h18a1 1 0 0 1 1 1v14a1 1 0 0 1-1 1H6.455zM14 10.25V8H7v6h7v-2.25L17 14V8l-3 2.25z"/></symbol><symbol viewBox="0 0 24 24" id="chat-quote-fill"><path fill="none" d="M0 0H24V24H0z"/><path d="M21 3c.552 0 1 .448 1 1v14c0 .552-.448 1-1 1H6.455L2 22.5V4c0-.552.448-1 1-1h18zM10.962 8.1l-.447-.688C8.728 8.187 7.5 9.755 7.5 11.505c0 .995.277 1.609.792 2.156.324.344.837.589 1.374.589.966 0 1.75-.784 1.75-1.75 0-.92-.711-1.661-1.614-1.745-.16-.015-.324-.012-.479.01v-.092c.006-.422.092-1.633 1.454-2.466l.185-.107-.447-.688zm4.553-.688c-1.787.775-3.015 2.343-3.015 4.093 0 .995.277 1.609.792 2.156.324.344.837.589 1.374.589.966 0 1.75-.784 1.75-1.75 0-.92-.711-1.661-1.614-1.745-.16-.015-.324-.012-.479.01 0-.313-.029-1.762 1.639-2.665z"/></symbol><symbol viewBox="0 0 24 24" id="service-fill"><path fill="none" d="M0 0h24v24H0z"/><path d="M14.121 10.48a1 1 0 0 0-1.414 0l-.707.706a2 2 0 1 1-2.828-2.828l5.63-5.632a6.5 6.5 0 0 1 6.377 10.568l-2.108 2.135-4.95-4.95zM3.161 4.468a6.503 6.503 0 0 1 8.009-.938L7.757 6.944a4 4 0 0 0 5.513 5.794l.144-.137 4.243 4.242-4.243 4.243a2 2 0 0 1-2.828 0L3.16 13.66a6.5 6.5 0 0 1 0-9.192z"/></symbol><symbol viewBox="0 0 24 24" id="briefcase-fill"><path fill="none" d="M0 0h24v24H0z"/><path d="M7 5V2a1 1 0 0 1 1-1h8a1 1 0 0 1 1 1v3h4a1 1 0 0 1 1 1v14a1 1 0 0 1-1 1H3a1 1 0 0 1-1-1V6a1 1 0 0 1 1-1h4zM4 15v4h16v-4H4zm7-4v2h2v-2h-2zM9 3v2h6V3H9z"/></symbol><symbol viewBox="0 0 24 24" id="history-line"><path fill="none" d="M0 0H24V24H0z"/><path d="M12 2c5.523 0 10 4.477 10 10s-4.477 10-10 10S2 17.523 2 12h2c0 4.418 3.582 8 8 8s8-3.582 8-8-3.582-8-8-8C9.25 4 6.824 5.387 5.385 7.5H8v2H2v-6h2V6c1.824-2.43 4.729-4 8-4zm1 5v4.585l3.243 3.243-1.415 1.415L11 12.413V7h2z"/></symbol><symbol viewBox="0 0 24 24" id="file-history-line"><path fill="none" d="M0 0L24 0 24 24 0 24z"/><path d="M16 2l5 5v13.993c0 .556-.445 1.007-.993 1.007H3.993C3.445 22 3 21.545 3 21.008V2.992C3 2.444 3.447 2 3.999 2H16zm-1 2H5v16h14V8h-4V4zm-2 5v4h3v2h-5V9h2z"/></symbol></svg>