<svg width="33" height="32" viewBox="0 0 33 32" fill="none" xmlns="http://www.w3.org/2000/svg">
<path d="M2.09182 22.1186L2.09182 22.1186C1.477 24.396 2.83908 26.7347 5.13053 27.344L20.9602 31.5538C23.2511 32.1629 25.6077 30.814 26.2225 28.5374L26.0294 28.4853L26.2225 28.5374L31.2593 9.88124C31.874 7.60398 30.512 5.26522 28.2206 4.65585L12.3909 0.44627L12.3395 0.639552L12.3909 0.446269C10.1 -0.162928 7.74332 1.18595 7.12864 3.46263L2.09182 22.1186ZM23.8575 27.9069L23.8575 27.907C23.5939 28.8839 22.5807 29.466 21.5932 29.2033L5.76353 24.9937C4.77653 24.7312 4.19308 23.7257 4.45669 22.7492L9.49351 4.09308C9.75731 3.11604 10.7704 2.53401 11.7579 2.79664L11.7996 2.64006L11.7579 2.79664L27.5876 7.00622C28.5745 7.26868 29.158 8.27434 28.8943 9.25078L23.8575 27.9069ZM11.2802 7.72394L11.2802 7.72395C11.1046 8.37434 11.4939 9.04092 12.1462 9.21435L24.0184 12.3715C24.67 12.5448 25.3419 12.1614 25.5173 11.5116C25.6931 10.8612 25.3036 10.1946 24.6514 10.0212L12.7792 6.864C12.1275 6.69069 11.4557 7.07413 11.2802 7.72394ZM9.49517 19.0333L9.49522 19.0333L16.4207 20.875L16.4207 20.875C17.0724 21.0482 17.7442 20.6649 17.9196 20.0149C18.0952 19.3644 17.7059 18.6981 17.0537 18.5245L17.0537 18.5245L10.1282 16.6829C9.47654 16.5096 8.80471 16.893 8.62928 17.5428C8.45367 18.1933 8.84302 18.8597 9.49517 19.0333ZM11.4537 11.7734C10.802 11.6001 10.1302 11.9835 9.95475 12.6333C9.77914 13.2837 10.1685 13.9503 10.8207 14.1237L22.6929 17.2809C23.3446 17.4542 24.0165 17.0708 24.1918 16.4209C24.3673 15.7706 23.9782 15.104 23.3259 14.9306L11.4537 11.7734Z" fill="white" stroke="white" stroke-width="0.4"/>
</svg>
