<svg width="214" height="214" viewBox="0 0 214 214" fill="none" xmlns="http://www.w3.org/2000/svg">
<rect width="214" height="214" fill="#7C4BE7"/>
<path d="M116.133 42.1807C123.375 40.018 131.549 40.9872 138.635 43.7715C145.668 46.5351 152.255 51.3331 156.187 57.6494L174.326 84.5449L174.386 84.6348L174.442 84.7266C185.721 103.117 174.588 126.787 154.726 132.719L139.9 137.146C133.36 151.688 123.247 162.597 107.664 169.455C103.709 171.195 100.419 172.228 97.6924 172.491C94.9662 172.755 91.8709 172.306 89.6895 169.882C87.675 167.644 87.5389 164.882 87.6133 163.296C87.6929 161.601 88.0947 159.919 88.3223 158.942C88.8894 156.509 89.274 154.16 89.4326 152.251C87.8105 152.738 86.0075 153.276 84.3154 153.776C82.4743 154.321 80.7389 154.832 79.4639 155.206C78.8262 155.393 78.3029 155.546 77.9395 155.652C77.7579 155.706 77.6161 155.747 77.5195 155.775C77.4712 155.79 77.4341 155.8 77.4092 155.808C77.3968 155.811 77.3872 155.815 77.3809 155.816C77.3779 155.817 77.3756 155.818 77.374 155.818L77.3721 155.818C57.108 161.851 36.6205 147.055 35.9805 125.917L35.0146 94.0146C34.5744 79.4664 43.943 66.4369 57.8594 62.2139L115.938 42.2432L116.035 42.21L116.133 42.1807Z" fill="#2AE14C" stroke="white" stroke-width="10"/>
<path d="M65.4238 93.7248C64.9126 92.3113 65.6441 90.7511 67.0575 90.2399L73.8824 87.7718C75.2959 87.2606 76.8561 87.9921 77.3673 89.4056L89.0909 121.824C89.6021 123.237 88.8706 124.797 87.4572 125.309L80.6323 127.777C79.2188 128.288 77.6586 127.556 77.1474 126.143L65.4238 93.7248Z" fill="#005A11"/>
<path d="M63.2079 119.608C61.7944 120.119 60.2342 119.388 59.723 117.974L57.2549 111.149C56.7437 109.736 57.4752 108.176 58.8887 107.664L91.3068 95.9407C92.7203 95.4295 94.2805 96.161 94.7917 97.5745L97.2598 104.399C97.771 105.813 97.0395 107.373 95.626 107.884L63.2079 119.608Z" fill="#005A11"/>
<path d="M112.016 92.7607C111.25 94.3946 111.164 96.2658 111.778 97.9627C112.392 99.6597 113.654 101.043 115.288 101.809C116.922 102.575 118.793 102.661 120.49 102.047C122.187 101.433 123.571 100.171 124.337 98.537C125.103 96.9031 125.188 95.0319 124.575 93.335C123.961 91.638 122.698 90.2544 121.064 89.4884C119.43 88.7224 117.559 88.6368 115.862 89.2505C114.165 89.8642 112.782 91.1269 112.016 92.7607Z" fill="#005A11"/>
<path d="M136.756 83.8137C135.99 85.4476 135.904 87.3188 136.518 89.0157C137.132 90.7127 138.394 92.0963 140.028 92.8623C141.662 93.6283 143.533 93.7138 145.23 93.1002C146.927 92.4865 148.311 91.2238 149.077 89.59C149.843 87.9561 149.928 86.0849 149.315 84.388C148.701 82.691 147.438 81.3074 145.804 80.5414C144.171 79.7754 142.299 79.6899 140.602 80.3035C138.906 80.9172 137.522 82.1799 136.756 83.8137Z" fill="#005A11"/>
<path d="M119.332 75.6448C118.566 77.2787 118.48 79.1499 119.094 80.8469C119.707 82.5438 120.97 83.9274 122.604 84.6934C124.238 85.4594 126.109 85.545 127.806 84.9313C129.503 84.3176 130.886 83.055 131.652 81.4211C132.418 79.7873 132.504 77.916 131.89 76.2191C131.277 74.5222 130.014 73.1385 128.38 72.3725C126.746 71.6065 124.875 71.521 123.178 72.1347C121.481 72.7483 120.097 74.011 119.332 75.6448Z" fill="#005A11"/>
<path d="M128.213 100.203C127.447 101.836 127.361 103.708 127.975 105.405C128.588 107.101 129.851 108.485 131.485 109.251C133.119 110.017 134.99 110.103 136.687 109.489C138.384 108.875 139.767 107.613 140.533 105.979C141.299 104.345 141.385 102.474 140.771 100.777C140.158 99.0799 138.895 97.6962 137.261 96.9302C135.627 96.1642 133.756 96.0787 132.059 96.6924C130.362 97.306 128.978 98.5687 128.213 100.203Z" fill="#005A11"/>
</svg>
