<svg width="36" height="36" viewBox="0 0 36 36" fill="none" xmlns="http://www.w3.org/2000/svg">
<g clip-path="url(#clip0_104_606)">
<path d="M0 17.9717C0 8.08163 8.08163 0 17.9717 0C27.9184 0 35.9435 8.08163 35.9435 17.9717C35.9435 27.9184 27.8618 35.9435 17.9717 35.9435C8.08163 36 0 27.9184 0 17.9717ZM6.89482 6.89482C4.06907 9.72056 2.31711 13.6766 2.31711 18.0283C2.31711 22.3799 4.06907 26.2794 6.89482 29.1617C9.72056 31.9874 13.6766 33.7394 18.0283 33.7394C22.3799 33.7394 26.2794 31.9874 29.1617 29.1617C31.9874 26.3359 33.7394 22.3799 33.7959 18.0283C33.7959 13.6766 32.044 9.77708 29.1617 6.89482C26.3359 4.06907 22.3799 2.31711 18.0283 2.31711C13.6201 2.2606 9.72056 4.01256 6.89482 6.89482Z" fill="#0D68F0"/>
<path d="M29.3877 18.65C29.5008 18.4804 29.5008 18.3109 29.5008 18.0848C29.5008 17.2936 28.7096 16.6154 27.6923 16.6154C27.2402 16.6154 26.8446 16.7284 26.5055 16.9545C26.2229 16.898 25.9403 16.898 25.6578 16.898C25.6578 16.898 25.2622 16.785 24.3579 16.6154V12.4898C24.3579 10.9074 23.5667 9.55105 22.3234 8.70333V7.40348C22.3234 6.72531 21.7582 6.16016 21.08 6.16016C20.4019 6.16016 19.8367 6.72531 19.8367 7.40348V7.96863H16.1633V7.40348C16.1633 6.72531 15.5981 6.16016 14.9199 6.16016C14.2417 6.16016 13.6766 6.72531 13.6766 7.40348V8.70333C12.4333 9.49454 11.6421 10.9074 11.6421 12.4898V16.5589C10.6813 16.7284 10.3422 16.898 10.3422 16.898C10.0596 16.898 9.77707 16.9545 9.49449 16.9545C9.1554 16.7284 8.7598 16.6154 8.30768 16.6154C7.29041 16.6154 6.4992 17.2371 6.4992 18.0848C6.4992 18.2543 6.55572 18.4804 6.61223 18.65C5.93405 19.4977 5.48193 20.5715 5.48193 21.7583C5.48193 23.9624 7.00784 25.8273 9.04237 26.3925V27.3532C9.04237 27.8619 9.49449 28.314 10.0031 28.314C10.5118 28.314 10.9639 27.8619 10.9639 27.3532V26.336C12.0942 25.9404 14.4678 25.3187 17.9152 25.3187C19.6672 25.3187 21.1366 25.4883 22.3234 25.7143C22.0973 25.8839 21.8713 26.0534 21.5887 26.223C20.4584 26.9576 18.989 27.5793 17.4066 27.5793C16.3328 27.5793 15.372 27.3532 14.6373 27.1272C14.2983 27.0142 14.0157 26.9011 13.8461 26.7881C13.7331 26.7316 13.6766 26.7316 13.6201 26.6751H13.5636C12.9984 26.3925 12.3202 26.562 11.9811 27.1272C11.6986 27.6923 11.8681 28.3705 12.4333 28.7096C12.5463 28.7661 14.5808 29.8964 17.3501 29.8964C19.7237 29.8964 21.7017 28.9357 23.0581 27.9749C23.9058 27.4098 24.584 26.7881 24.9231 26.449V27.4098C24.9231 27.9184 25.3752 28.3705 25.8838 28.3705C26.3925 28.3705 26.8446 27.9184 26.8446 27.4098V26.449C28.8791 25.8839 30.405 24.0189 30.405 21.8148C30.518 20.5149 30.0659 19.4412 29.3877 18.65ZM9.55101 19.9498C8.70328 19.9498 8.0251 19.6107 8.0251 19.1586C8.0251 18.7065 8.70328 18.3674 9.55101 18.3674C10.3987 18.3674 11.0769 18.7065 11.0769 19.1586C11.1334 19.6107 10.3987 19.9498 9.55101 19.9498ZM15.033 16.0503C13.6766 16.0503 12.6028 14.9765 12.6028 13.6201C12.6028 12.2638 13.6766 11.19 15.033 11.19C15.7676 11.19 16.4458 11.5291 16.8979 12.0377C16.6719 12.4898 16.5589 13.055 16.5589 13.6201C16.5589 14.1853 16.6719 14.6939 16.8979 15.2025C16.4458 15.7112 15.7676 16.0503 15.033 16.0503ZM20.4019 16.5589C18.7629 16.5589 17.4631 15.2591 17.4631 13.6201C17.4631 11.9812 18.7629 10.6813 20.4019 10.6813C22.0408 10.6813 23.3406 11.9812 23.3406 13.6201C23.2841 15.2591 21.9843 16.5589 20.4019 16.5589ZM26.449 19.9498C25.6012 19.9498 24.8665 19.6107 24.8665 19.1586C24.8665 18.7065 25.5447 18.3674 26.449 18.3674C27.2967 18.3674 27.9749 18.7065 27.9749 19.1586C27.9749 19.6107 27.2967 19.9498 26.449 19.9498ZM15.033 12.7159C14.5243 12.7159 14.1287 13.1115 14.1287 13.6201C14.1287 14.1288 14.5243 14.5244 15.033 14.5244C15.5416 14.5244 15.9372 14.1288 15.9372 13.6201C15.9372 13.1115 15.5416 12.7159 15.033 12.7159ZM20.4019 12.5463C19.7802 12.5463 19.3281 13.055 19.3281 13.6201C19.3281 14.2418 19.8367 14.6939 20.4019 14.6939C21.0235 14.6939 21.4757 14.1853 21.4757 13.6201C21.4757 12.9985 20.967 12.5463 20.4019 12.5463Z" fill="#0D68F0"/>
</g>
<defs>
<clipPath id="clip0_104_606">
<rect width="36" height="36" fill="white"/>
</clipPath>
</defs>
</svg>
